<svg width="495" height="377" viewBox="0 0 495 377" fill="none" xmlns="http://www.w3.org/2000/svg">
<path d="M336.34 362.774L333.272 374.087L285.483 356.808L302.473 352.667" fill="white"/>
<path d="M333.272 374.902C333.18 374.918 333.086 374.918 332.994 374.902L285.205 357.623C285.039 357.563 284.897 357.451 284.8 357.305C284.703 357.158 284.656 356.983 284.667 356.808C284.673 356.632 284.737 356.463 284.849 356.327C284.961 356.192 285.115 356.097 285.287 356.058L302.277 351.934C302.494 351.882 302.722 351.918 302.912 352.034C303.102 352.15 303.237 352.337 303.289 352.553C303.341 352.769 303.305 352.997 303.189 353.187C303.073 353.376 302.886 353.512 302.669 353.564L288.29 357.052L332.717 373.125L335.54 362.66C335.598 362.448 335.736 362.268 335.926 362.159C336.115 362.049 336.34 362.018 336.552 362.073C336.758 362.137 336.932 362.277 337.038 362.465C337.144 362.653 337.175 362.874 337.124 363.083L334.055 374.396C333.992 374.617 333.846 374.804 333.647 374.918C333.522 374.937 333.395 374.932 333.272 374.902Z" fill="#353B49"/>
<path d="M164.509 343.392C164.292 343.392 164.085 343.306 163.932 343.153C163.779 343.001 163.693 342.793 163.693 342.577V1.10484C163.693 0.888678 163.779 0.681367 163.932 0.528516C164.085 0.375665 164.292 0.289795 164.509 0.289795C164.725 0.289795 164.933 0.375665 165.086 0.528516C165.239 0.681367 165.325 0.888678 165.325 1.10484V342.577C165.325 342.793 165.239 343.001 165.086 343.153C164.933 343.306 164.725 343.392 164.509 343.392Z" fill="#D1D3D4"/>
<path d="M195.454 375.211C195.234 375.211 195.022 375.123 194.867 374.967L164.656 343.799L134.445 374.967C134.369 375.043 134.279 375.104 134.179 375.145C134.08 375.187 133.973 375.208 133.865 375.208C133.758 375.208 133.651 375.187 133.552 375.145C133.452 375.104 133.362 375.043 133.286 374.967C133.135 374.812 133.051 374.604 133.051 374.388C133.051 374.172 133.135 373.965 133.286 373.81L164.084 342.055C164.24 341.9 164.452 341.813 164.672 341.813C164.892 341.813 165.104 341.9 165.26 342.055L196.058 373.81C196.134 373.885 196.195 373.975 196.237 374.075C196.278 374.174 196.299 374.281 196.299 374.388C196.299 374.496 196.278 374.602 196.237 374.702C196.195 374.801 196.134 374.891 196.058 374.967C195.98 375.048 195.886 375.111 195.782 375.153C195.678 375.196 195.566 375.215 195.454 375.211Z" fill="#D1D3D4"/>
<path d="M164.509 343.392C164.292 343.392 164.085 343.306 163.932 343.153C163.779 343.001 163.693 342.793 163.693 342.577V1.10484C163.693 0.888678 163.779 0.681367 163.932 0.528516C164.085 0.375665 164.292 0.289795 164.509 0.289795C164.725 0.289795 164.933 0.375665 165.086 0.528516C165.239 0.681367 165.325 0.888678 165.325 1.10484V342.577C165.325 342.793 165.239 343.001 165.086 343.153C164.933 343.306 164.725 343.392 164.509 343.392Z" fill="#353B49"/>
<path d="M195.454 375.211C195.234 375.211 195.022 375.123 194.867 374.967L164.656 343.799L134.445 374.967C134.369 375.043 134.279 375.104 134.179 375.145C134.08 375.187 133.973 375.208 133.865 375.208C133.758 375.208 133.651 375.187 133.552 375.145C133.452 375.104 133.362 375.043 133.286 374.967C133.135 374.812 133.051 374.604 133.051 374.388C133.051 374.172 133.135 373.965 133.286 373.81L164.084 342.055C164.24 341.9 164.452 341.813 164.672 341.813C164.892 341.813 165.104 341.9 165.26 342.055L196.058 373.81C196.134 373.885 196.195 373.975 196.237 374.075C196.278 374.174 196.299 374.281 196.299 374.388C196.299 374.496 196.278 374.602 196.237 374.702C196.195 374.801 196.134 374.891 196.058 374.967C195.98 375.048 195.886 375.111 195.782 375.153C195.678 375.196 195.566 375.215 195.454 375.211Z" fill="#353B49"/>
<path d="M297.789 8.40747H31.5387V204.948H297.789V8.40747Z" fill="white"/>
<path d="M297.773 205.796H31.4735C31.2484 205.796 31.0325 205.706 30.8733 205.547C30.7142 205.388 30.6248 205.173 30.6248 204.948V8.40743C30.6247 8.29687 30.6468 8.18742 30.6896 8.08548C30.7325 7.98354 30.7953 7.89116 30.8743 7.81375C30.9533 7.73633 31.047 7.67543 31.1499 7.63463C31.2528 7.59382 31.3628 7.57392 31.4735 7.57609H297.773C297.883 7.57392 297.993 7.59382 298.096 7.63463C298.199 7.67543 298.293 7.73633 298.372 7.81375C298.451 7.89116 298.514 7.98354 298.557 8.08548C298.599 8.18742 298.621 8.29687 298.621 8.40743V204.948C298.621 205.059 298.6 205.169 298.557 205.272C298.514 205.375 298.452 205.469 298.373 205.547C298.294 205.626 298.201 205.688 298.098 205.731C297.995 205.774 297.884 205.796 297.773 205.796ZM32.3711 204.165H296.94V9.25508H32.3711V204.165Z" fill="#353B49"/>
<path d="M90.3283 97.1824C92.699 97.1824 94.6208 95.263 94.6208 92.8953C94.6208 90.5276 92.699 88.6082 90.3283 88.6082C87.9576 88.6082 86.0358 90.5276 86.0358 92.8953C86.0358 95.263 87.9576 97.1824 90.3283 97.1824Z" fill="white"/>
<path d="M140.255 80.963C142.626 80.963 144.548 79.0435 144.548 76.6758C144.548 74.3081 142.626 72.3887 140.255 72.3887C137.885 72.3887 135.963 74.3081 135.963 76.6758C135.963 79.0435 137.885 80.963 140.255 80.963Z" fill="white"/>
<path d="M171.2 100.247C173.571 100.247 175.493 98.3277 175.493 95.96C175.493 93.5923 173.571 91.6729 171.2 91.6729C168.83 91.6729 166.908 93.5923 166.908 95.96C166.908 98.3277 168.83 100.247 171.2 100.247Z" fill="white"/>
<path d="M117.585 118.602C119.956 118.602 121.877 116.682 121.877 114.315C121.877 111.947 119.956 110.028 117.585 110.028C115.214 110.028 113.292 111.947 113.292 114.315C113.292 116.682 115.214 118.602 117.585 118.602Z" fill="white"/>
<path d="M340.143 164.44C340.143 164.44 311.956 251.341 302.408 352.667L336.258 362.774L381.958 215.902L399.112 364.241L434.937 365.007C434.937 365.007 435.264 276.412 426.075 164.506C407.517 164.114 340.143 164.44 340.143 164.44Z" fill="#353B49"/>
<path d="M251.159 119.596C251.159 119.596 287.898 165.435 304.84 163.968C321.781 162.5 342.787 127.91 342.787 127.91L325.47 97.3782C325.47 97.3782 303.371 124.226 299.356 122.4C295.341 120.574 268.052 100.687 268.052 100.687" fill="white"/>
<path d="M304.04 164.815C286.56 164.815 252.008 121.96 250.522 120.102C250.445 120.02 250.385 119.922 250.347 119.816C250.309 119.71 250.294 119.597 250.302 119.484C250.31 119.372 250.341 119.262 250.394 119.162C250.447 119.062 250.52 118.974 250.608 118.904C250.697 118.834 250.799 118.783 250.908 118.754C251.017 118.725 251.131 118.72 251.243 118.737C251.354 118.755 251.461 118.795 251.556 118.856C251.652 118.917 251.733 118.997 251.795 119.091C252.171 119.531 288.47 164.554 304.775 163.104C320.133 161.767 339.409 131.708 341.824 127.845L325.34 98.7474C323.609 100.818 319.186 106.05 314.502 111.087C302.033 124.487 299.895 123.509 298.981 123.085C294.9 121.226 268.639 102.105 267.513 101.29C267.341 101.16 267.226 100.969 267.192 100.756C267.159 100.543 267.209 100.326 267.333 100.149C267.463 99.9764 267.657 99.862 267.871 99.8315C268.085 99.8009 268.303 99.8566 268.476 99.9863C268.753 100.182 295.716 119.825 299.65 121.601C301.282 122.335 311.434 113.109 324.834 96.8076C324.917 96.7043 325.025 96.6234 325.147 96.5722C325.27 96.521 325.403 96.501 325.535 96.5142C325.667 96.523 325.795 96.5649 325.906 96.6362C326.017 96.7074 326.109 96.8057 326.172 96.9217L343.489 127.453C343.565 127.579 343.606 127.722 343.606 127.869C343.606 128.016 343.565 128.16 343.489 128.285C342.624 129.719 322.092 163.234 304.922 164.734L304.04 164.815Z" fill="#353B49"/>
<path d="M421.766 111.951L444.404 102.643C436.357 85.4947 427.299 75.3066 421.048 71.3292C413.067 64.6947 393.302 64.2383 375.136 63.5373C369.335 63.1769 363.514 63.727 357.884 65.1674C336.666 71.0194 317.081 101.616 317.081 101.616L336.03 112.897C336.03 112.897 333.924 154.529 336.65 168.613C336.65 168.613 385.794 189.804 427.054 178.214C427.022 178.263 421.276 117.33 421.766 111.951Z" fill="#F7D3C3"/>
<path d="M378.286 57.9625L375.462 71.5575C375.462 71.5575 378.482 80.5882 387.622 79.7079C390.327 79.398 392.93 78.4913 395.242 77.0535C397.554 75.6158 399.517 73.6828 400.989 71.3945L404.253 46.4051C404.253 46.4051 398.149 42.0201 402.001 28.0339C394.33 30.1773 386.222 30.2168 378.531 28.148C378.531 28.148 372.427 43.0634 372.573 50.0728C372.72 57.0822 378.286 57.9625 378.286 57.9625Z" fill="white"/>
<path d="M386.3 80.5719C377.682 80.5719 374.695 71.9324 374.663 71.8509C374.622 71.707 374.622 71.5547 374.663 71.4108L377.339 58.5656C375.617 57.9295 374.145 56.7576 373.14 55.2227C372.135 53.6878 371.65 51.871 371.757 50.0402C371.61 42.933 377.519 28.3926 377.764 27.7731C377.84 27.5836 377.984 27.429 378.168 27.3388C378.352 27.2486 378.562 27.2291 378.759 27.2841C386.292 29.2891 394.224 29.2553 401.74 27.1863C401.884 27.1372 402.039 27.1279 402.189 27.1595C402.338 27.191 402.476 27.2622 402.588 27.3656C402.699 27.4701 402.779 27.6028 402.819 27.7494C402.859 27.896 402.859 28.0508 402.817 28.197C399.21 41.3681 404.71 45.639 404.759 45.6716C404.882 45.7626 404.978 45.8845 405.038 46.0248C405.099 46.1651 405.121 46.3188 405.102 46.4703L401.838 71.4597C401.823 71.5676 401.789 71.6723 401.74 71.7694C400.208 74.1772 398.154 76.2109 395.731 77.7203C393.307 79.2297 390.575 80.1763 387.736 80.4904C387.279 80.5393 386.757 80.5719 386.3 80.5719ZM376.327 71.5086C376.833 72.8289 379.82 79.659 387.54 78.8114C390.088 78.5067 392.538 77.6501 394.72 76.3014C396.902 74.9528 398.763 73.1446 400.173 71.0032L403.339 46.5518C402.017 45.2966 398.084 40.439 400.793 29.0446C393.633 30.7554 386.165 30.7219 379.02 28.9468C377.845 31.9299 373.275 43.9437 373.406 49.8446C373.536 56.039 378.302 56.9681 378.433 57.0007C378.545 57.0202 378.653 57.0621 378.748 57.1239C378.844 57.1857 378.927 57.2662 378.991 57.3605C379.055 57.4549 379.099 57.5611 379.121 57.673C379.143 57.7848 379.142 57.8999 379.118 58.0114L376.327 71.5086Z" fill="#353B49"/>
<path d="M399.096 45.2315C399.558 44.0509 400.395 43.0544 401.479 42.3951C402.497 41.8395 403.6 41.4541 404.743 41.2541C405.371 41.108 406.024 41.108 406.652 41.2541C407.09 41.3841 407.499 41.5942 407.86 41.8735C408.756 42.4705 409.409 43.3661 409.705 44.4001C409.833 45.2539 409.754 46.1258 409.476 46.9431C409.237 47.8521 408.886 48.7281 408.431 49.5512C407.95 50.3551 407.314 51.0557 406.56 51.6127C405.806 52.1696 404.949 52.5719 404.039 52.7962C403.128 53.0205 402.182 53.0625 401.255 52.9196C400.328 52.7767 399.439 52.4518 398.639 51.9638" fill="white"/>
<path d="M402.409 53.7569C400.942 53.7589 399.502 53.3586 398.247 52.5995C398.058 52.4817 397.923 52.2942 397.871 52.0777C397.819 51.8611 397.854 51.6328 397.97 51.4422C398.026 51.3469 398.102 51.2641 398.191 51.1984C398.281 51.1327 398.383 51.0856 398.491 51.0597C398.598 51.0339 398.711 51.0299 398.82 51.048C398.93 51.0661 399.035 51.1059 399.128 51.1651C399.833 51.5958 400.616 51.8823 401.433 52.0081C402.249 52.1339 403.083 52.0963 403.884 51.8976C404.686 51.6989 405.441 51.3431 406.103 50.8507C406.766 50.3584 407.325 49.7394 407.746 49.0296C408.176 48.2792 408.5 47.4728 408.709 46.6334C408.947 45.9481 409.02 45.2165 408.921 44.498C408.671 43.6659 408.133 42.9496 407.403 42.4767C407.141 42.2532 406.836 42.0866 406.506 41.9876C406 41.8762 405.477 41.8762 404.971 41.9876C403.903 42.1624 402.871 42.515 401.919 43.0309C400.996 43.5941 400.281 44.4404 399.879 45.4434C399.799 45.6529 399.639 45.8219 399.434 45.9136C399.229 46.0052 398.996 46.012 398.786 45.9325C398.582 45.8457 398.419 45.684 398.331 45.4807C398.243 45.2775 398.236 45.0482 398.312 44.8403C398.844 43.4877 399.8 42.3437 401.038 41.5801C402.157 40.9662 403.371 40.542 404.629 40.3249C405.38 40.1449 406.163 40.1449 406.914 40.3249C407.461 40.4757 407.972 40.7364 408.415 41.0911C409.472 41.8057 410.237 42.876 410.57 44.1067C410.731 45.0954 410.647 46.1085 410.325 47.0572C410.083 48.0399 409.704 48.9838 409.199 49.861C408.113 51.6725 406.352 52.9798 404.302 53.4961C403.685 53.6645 403.049 53.7521 402.409 53.7569Z" fill="#353B49"/>
<path d="M405.494 59.8859C405.307 59.8611 405.134 59.775 405.002 59.6412C404.869 59.5074 404.786 59.3334 404.763 59.1467C404.741 58.96 404.781 58.7712 404.878 58.6099C404.975 58.4486 405.122 58.3241 405.298 58.2559C407.858 57.6051 410.258 56.4397 412.351 54.8309C414.445 53.2221 416.188 51.2037 417.474 48.8991C421.451 41.8826 422.722 33.6557 421.048 25.7681C419.954 21.4157 418.534 20.1768 417.522 19.8997C417.031 19.8366 416.532 19.8859 416.062 20.0441C415.593 20.2023 415.166 20.4651 414.813 20.8126C414.691 20.9382 414.533 21.0229 414.36 21.055C414.188 21.0871 414.01 21.0651 413.85 20.9919C413.695 20.9142 413.567 20.7919 413.483 20.6407C413.399 20.4896 413.362 20.3166 413.377 20.1442C413.377 19.916 413.85 14.6671 408.48 9.38562C404.482 5.52229 391.392 0.713512 381.485 2.00129C376.393 2.66963 372.737 4.80505 370.615 8.34236C368.346 12.1568 367.677 15.6778 368.624 18.8239C369.801 22.0086 372.13 24.6373 375.152 26.1919C375.252 26.239 375.341 26.3052 375.415 26.3868C375.489 26.4684 375.547 26.5638 375.584 26.6675C375.621 26.7712 375.637 26.8811 375.632 26.9911C375.626 27.1011 375.599 27.209 375.552 27.3085C375.505 27.408 375.439 27.4973 375.357 27.5713C375.275 27.6452 375.18 27.7024 375.076 27.7395C374.866 27.8144 374.635 27.803 374.434 27.7079C370.959 25.9804 368.286 22.9784 366.975 19.3292C365.865 15.7104 366.584 11.7167 369.13 7.4784C371.513 3.48467 375.577 1.07214 381.207 0.338595C391.963 -1.07959 405.428 4.12041 409.607 8.17935C412.589 10.9091 414.509 14.6047 415.025 18.612C415.923 18.1224 416.971 17.9885 417.963 18.237C420.052 18.8076 421.635 21.1875 422.68 25.3279C424.463 33.6646 423.121 42.3646 418.91 49.7794C417.507 52.2715 415.615 54.4546 413.346 56.197C411.076 57.9395 408.478 59.2054 405.706 59.9185L405.494 59.8859Z" fill="#353B49"/>
<path d="M377.193 64.7764C378.805 65.1796 380.485 65.234 382.121 64.936C383.756 64.638 385.309 63.9945 386.675 63.0485C391.082 59.7883 391.033 57.5876 391.033 57.5876C391.033 57.5876 384.276 60.1795 378.629 58.2397L377.193 64.7764Z" fill="#353B49"/>
<path d="M380.081 65.9498C379.029 65.9588 377.981 65.8272 376.964 65.5586C376.768 65.5014 376.602 65.3717 376.499 65.1959C376.395 65.0202 376.363 64.8117 376.409 64.6131L377.829 58.0928C377.854 57.981 377.901 57.8756 377.969 57.783C378.036 57.6904 378.122 57.6128 378.221 57.5548C378.327 57.5105 378.44 57.4876 378.555 57.4876C378.67 57.4876 378.784 57.5105 378.89 57.5548C384.178 59.3806 390.674 56.9354 390.739 56.9028C390.862 56.8555 390.994 56.8385 391.125 56.8534C391.256 56.8682 391.381 56.9144 391.49 56.9881C391.599 57.0618 391.689 57.1607 391.751 57.2764C391.814 57.3921 391.847 57.5212 391.849 57.6527C391.849 57.9135 391.767 60.3912 387.148 63.7818C385.086 65.2419 382.609 66.0018 380.081 65.9498ZM378.172 64.1567C380.971 64.6542 383.854 64.021 386.185 62.3962C387.575 61.4514 388.771 60.2509 389.711 58.8589C386.312 59.8906 382.704 60.0364 379.233 59.2827L378.172 64.1567Z" fill="#353B49"/>
<path d="M336.683 169.477C336.476 169.474 336.277 169.393 336.126 169.252C335.976 169.11 335.883 168.917 335.867 168.711C335.033 140.285 337.371 111.855 342.836 83.9462C342.855 83.8419 342.896 83.7426 342.954 83.654C343.012 83.5654 343.088 83.4893 343.176 83.4301C343.264 83.3709 343.363 83.3299 343.467 83.3093C343.571 83.2888 343.679 83.2892 343.783 83.3104C343.889 83.33 343.991 83.3705 344.081 83.4296C344.172 83.4887 344.25 83.5652 344.311 83.6547C344.371 83.7442 344.414 83.8449 344.435 83.9509C344.457 84.057 344.457 84.1662 344.435 84.2722C339.003 112.032 336.676 140.308 337.499 168.581C337.506 168.688 337.491 168.795 337.456 168.897C337.421 168.998 337.366 169.091 337.295 169.172C337.224 169.252 337.137 169.317 337.041 169.364C336.944 169.411 336.839 169.438 336.732 169.445L336.683 169.477Z" fill="#353B49"/>
<path d="M380.979 161.848C380.979 160.577 374.255 109.685 374.255 109.685L324.997 107.159L333.419 157.692L380.979 161.848Z" fill="#353B49"/>
<path d="M442.641 97.9487C442.641 97.9487 480.784 165.418 456.433 169.542C439.475 172.428 405.64 164.652 393.008 158.132C380.375 151.611 375.136 146.852 375.136 146.852C375.136 146.852 361.034 145.808 362.715 142.45C363.188 141.504 363.963 140.742 364.918 140.285C365.872 139.827 366.952 139.7 367.987 139.924C367.987 139.924 361.246 139.288 362.095 136.142C362.944 132.996 368.411 134.039 368.411 134.039C368.411 134.039 358.929 130.665 361.459 128.774C363.988 126.883 368.819 128.35 368.819 128.35C368.819 128.35 362.291 127.176 362.519 124.356C362.911 119.58 383.345 124.78 387.344 128.562C391.343 132.344 415.694 136.142 420.118 136.566L408.693 112.245" fill="white"/>
<path d="M447.913 170.977C429.747 170.977 403.617 164.456 392.632 158.8C386.297 155.739 380.32 151.989 374.809 147.618C372.394 147.422 363.515 146.542 362.03 143.901C361.87 143.617 361.786 143.297 361.786 142.972C361.786 142.646 361.87 142.326 362.03 142.043C362.47 141.112 363.174 140.33 364.054 139.793C363.136 139.483 362.327 138.917 361.72 138.163C361.488 137.845 361.333 137.479 361.265 137.092C361.197 136.705 361.218 136.307 361.328 135.93C361.537 135.236 361.94 134.616 362.489 134.143C363.039 133.669 363.711 133.362 364.429 133.256C362.405 132.278 360.463 131.023 360.267 129.735C360.217 129.422 360.26 129.1 360.391 128.811C360.521 128.521 360.733 128.276 361.002 128.105C361.708 127.609 362.517 127.275 363.368 127.127C362.868 126.839 362.453 126.423 362.166 125.921C361.879 125.42 361.731 124.852 361.736 124.275C361.789 123.763 361.997 123.28 362.333 122.889C362.668 122.499 363.115 122.22 363.613 122.09C368.509 120.199 384.211 124.421 387.948 127.959C391.359 131.219 411.712 134.691 418.795 135.571L407.925 112.571C407.879 112.473 407.852 112.368 407.846 112.26C407.84 112.152 407.856 112.044 407.893 111.943C407.929 111.841 407.985 111.748 408.058 111.668C408.131 111.588 408.219 111.524 408.317 111.478C408.515 111.388 408.739 111.379 408.944 111.452C409.148 111.525 409.315 111.675 409.411 111.87L420.836 136.207C420.907 136.331 420.945 136.471 420.945 136.614C420.945 136.758 420.907 136.898 420.836 137.022C420.752 137.136 420.64 137.227 420.512 137.286C420.384 137.346 420.242 137.373 420.101 137.364C416.037 136.973 391.147 133.208 386.838 129.214C383.574 126.084 368.542 122.025 364.201 123.672C363.417 123.981 363.385 124.34 363.368 124.487C363.287 125.628 365.539 126.703 367.644 127.29C368.142 127.368 368.633 127.483 369.113 127.633C369.313 127.69 369.482 127.822 369.585 128.002C369.689 128.181 369.719 128.394 369.668 128.594C369.621 128.797 369.499 128.973 369.326 129.088C369.153 129.203 368.943 129.248 368.738 129.214C368.542 129.214 367.987 129.067 367.269 128.872C365.497 128.422 363.621 128.636 361.997 129.475C361.997 130.273 365.261 132.083 368.722 133.322C368.918 133.386 369.083 133.523 369.18 133.705C369.278 133.888 369.3 134.101 369.244 134.3C369.19 134.499 369.062 134.671 368.886 134.78C368.711 134.889 368.5 134.927 368.297 134.887C368.297 134.887 363.548 134.055 362.927 136.386C362.878 136.536 362.865 136.696 362.89 136.853C362.916 137.009 362.979 137.156 363.074 137.283C364.266 138.317 365.76 138.94 367.334 139.06C367.631 139.075 367.925 139.113 368.216 139.174C368.432 139.208 368.626 139.327 368.754 139.505C368.883 139.682 368.936 139.903 368.901 140.119C368.866 140.335 368.747 140.529 368.57 140.657C368.392 140.786 368.171 140.838 367.954 140.804L367.236 140.706C366.475 140.625 365.707 140.774 365.032 141.135C364.357 141.495 363.805 142.05 363.45 142.727C363.418 142.776 363.4 142.832 363.4 142.89C363.4 142.948 363.418 143.005 363.45 143.053C364.282 144.52 370.827 145.629 375.201 145.971C375.382 145.977 375.556 146.046 375.691 146.167C375.691 146.167 381.028 150.959 393.383 157.333C405.738 163.707 439.622 171.547 456.286 168.744C457.613 168.583 458.878 168.086 459.958 167.298C461.038 166.51 461.898 165.459 462.455 164.245C470.012 148.367 442.217 98.8452 441.923 98.3398C441.831 98.1529 441.813 97.9377 441.875 97.7386C441.937 97.5395 442.072 97.3715 442.254 97.2692C442.436 97.1669 442.65 97.1381 442.853 97.1887C443.055 97.2392 443.231 97.3654 443.343 97.5411C444.518 99.6113 471.856 148.319 463.924 164.946C463.256 166.395 462.23 167.65 460.942 168.594C459.654 169.538 458.148 170.139 456.563 170.341C453.703 170.794 450.809 171.007 447.913 170.977Z" fill="#353B49"/>
<path d="M272.295 104.061C272.295 104.061 262.502 77.9799 260.364 78.8928C258.226 79.8057 261.996 95.9925 261.996 95.9925C261.996 95.9925 246.344 78.9743 244.32 80.0828C242.296 81.1912 243.569 85.3969 249.461 94.0364C249.461 94.0364 239.065 82.0552 237.416 84.5492C235.768 87.0433 245.969 97.7856 245.969 97.7856C245.969 97.7856 236.176 87.4345 234.789 89.5047C233.401 91.5749 244.043 102.334 244.043 102.334C244.043 102.334 234.087 90.7599 233.401 94.3461C232.716 97.9323 252.448 121.275 258.112 127.698" fill="white"/>
<path d="M258.128 128.513C258.013 128.516 257.898 128.493 257.794 128.445C257.689 128.397 257.597 128.325 257.524 128.236C257.263 127.942 231.704 98.894 232.618 94.183C232.651 93.8815 232.774 93.5969 232.973 93.367C233.171 93.1371 233.434 92.9726 233.728 92.8953C234.222 92.8068 234.732 92.8812 235.18 93.1072C234.087 91.363 233.548 89.847 234.119 89.0646C234.239 88.8805 234.4 88.7271 234.59 88.6166C234.78 88.5062 234.994 88.4419 235.213 88.4288C236.383 88.5555 237.486 89.0329 238.379 89.7981C236.861 87.4345 235.964 85.2664 236.747 84.0928C236.887 83.8898 237.072 83.7213 237.287 83.5999C237.502 83.4785 237.741 83.4074 237.988 83.3918C239.522 83.294 242.149 85.3805 244.63 87.7442C242.525 83.7341 242.476 82.0062 242.721 80.9956C242.793 80.6511 242.941 80.3267 243.152 80.0451C243.363 79.7635 243.634 79.5316 243.945 79.3655C245.577 78.4852 251.126 83.1473 260.544 93.205C259.026 86.2119 257.981 78.9091 260.07 78.1266C260.217 78.0634 260.375 78.0308 260.535 78.0308C260.695 78.0308 260.854 78.0634 261.001 78.1266C263.775 79.3818 270.94 98.0464 273.062 103.735C273.111 103.93 273.087 104.135 272.994 104.313C272.901 104.49 272.746 104.627 272.558 104.698C272.371 104.768 272.163 104.767 271.976 104.695C271.789 104.623 271.635 104.484 271.544 104.306C267.415 93.2865 262.323 81.4846 260.544 79.8545C260.021 81.3868 261.213 89.1298 262.812 95.8294C262.854 96.0029 262.837 96.1855 262.763 96.348C262.689 96.5105 262.563 96.6436 262.404 96.726C262.244 96.8142 262.059 96.8461 261.878 96.8166C261.698 96.787 261.532 96.6977 261.409 96.563C254.472 88.9341 246.377 81.1586 244.63 80.7837C244.458 80.9156 244.341 81.1077 244.304 81.3216C244.01 82.5279 244.777 85.6413 250.147 93.5147C250.263 93.6864 250.31 93.8961 250.277 94.1009C250.244 94.3058 250.135 94.4904 249.97 94.6172C249.806 94.744 249.599 94.8034 249.392 94.7833C249.186 94.7632 248.994 94.6651 248.858 94.5091C244.19 89.1298 239.163 84.7285 238.069 84.9567C237.416 85.9674 241.333 91.6401 246.54 97.1172C246.689 97.275 246.77 97.4856 246.764 97.7027C246.757 97.9197 246.665 98.1254 246.507 98.2746C246.349 98.4237 246.138 98.5041 245.921 98.498C245.704 98.4919 245.498 98.3998 245.348 98.242C241.121 93.7755 236.731 90.0915 235.556 90.0915C235.556 91.0044 237.498 93.8081 240.452 97.1498C242.084 98.7799 243.716 100.655 244.81 101.844C244.951 101.998 245.029 102.199 245.029 102.407C245.029 102.615 244.951 102.816 244.81 102.969C244.657 103.119 244.452 103.202 244.239 103.202C244.025 103.202 243.82 103.119 243.667 102.969C242.345 101.616 240.746 99.9373 239.244 98.2094C236.894 95.9273 234.935 94.4113 234.348 94.5091C233.956 97.0194 248.401 115.244 258.96 127.209C259.101 127.374 259.17 127.588 259.155 127.804C259.14 128.02 259.041 128.222 258.879 128.366C258.775 128.45 258.653 128.507 258.522 128.533C258.391 128.558 258.256 128.552 258.128 128.513Z" fill="#353B49"/>
<path d="M262.013 95.9924C260.512 96.9537 259.397 98.4097 258.86 100.107C258.324 101.805 258.399 103.637 259.075 105.284" fill="white"/>
<path d="M259.075 106.099C258.905 106.098 258.74 106.046 258.601 105.95C258.461 105.854 258.353 105.719 258.291 105.561C257.562 103.737 257.489 101.716 258.084 99.8432C258.679 97.9707 259.906 96.3621 261.556 95.2917C261.647 95.2365 261.749 95.2003 261.855 95.1852C261.961 95.1701 262.069 95.1765 262.173 95.2038C262.276 95.2312 262.373 95.279 262.458 95.3445C262.542 95.41 262.613 95.4918 262.665 95.5851C262.774 95.7693 262.806 95.9887 262.754 96.196C262.702 96.4033 262.57 96.582 262.388 96.6935C261.045 97.5523 260.048 98.857 259.573 100.378C259.098 101.899 259.176 103.538 259.793 105.007C259.861 105.212 259.847 105.436 259.752 105.631C259.658 105.826 259.491 105.976 259.287 106.05C259.219 106.077 259.148 106.093 259.075 106.099Z" fill="#353B49"/>
<path d="M399.128 364.306L400.157 375.277H451.226C446.115 371.376 440.651 367.959 434.905 365.072" fill="white"/>
<path d="M451.226 376.092H400.157C399.952 376.089 399.756 376.011 399.605 375.872C399.455 375.734 399.361 375.545 399.341 375.342L398.329 364.371C398.317 364.265 398.328 364.158 398.359 364.056C398.39 363.953 398.441 363.858 398.51 363.776C398.578 363.694 398.662 363.627 398.757 363.578C398.853 363.529 398.956 363.499 399.063 363.491C399.169 363.48 399.277 363.49 399.379 363.521C399.482 363.552 399.577 363.604 399.659 363.672C399.741 363.74 399.809 363.825 399.858 363.919C399.907 364.014 399.936 364.118 399.944 364.225L400.907 374.462H448.794C444.271 371.233 439.52 368.334 434.578 365.79C434.386 365.69 434.241 365.518 434.175 365.312C434.109 365.106 434.128 364.882 434.227 364.689C434.327 364.497 434.499 364.352 434.706 364.286C434.912 364.22 435.137 364.239 435.329 364.339C441.103 367.26 446.594 370.709 451.732 374.641C451.866 374.743 451.964 374.885 452.011 375.046C452.058 375.208 452.052 375.38 451.993 375.538C451.937 375.697 451.833 375.835 451.696 375.934C451.559 376.033 451.395 376.088 451.226 376.092Z" fill="#353B49"/>
<path d="M493.923 375.994H1.3605C1.14538 375.99 0.940226 375.903 0.78808 375.751C0.635934 375.599 0.548612 375.394 0.544434 375.179C0.544434 374.963 0.630411 374.756 0.783454 374.603C0.936496 374.45 1.14407 374.364 1.3605 374.364H493.923C494.139 374.364 494.347 374.45 494.5 374.603C494.653 374.756 494.739 374.963 494.739 375.179C494.739 375.395 494.653 375.603 494.5 375.755C494.347 375.908 494.139 375.994 493.923 375.994Z" fill="#353B49"/>
<path d="M396.68 222.227C396.594 222.243 396.505 222.243 396.419 222.227L370.68 213.033C370.479 212.962 370.314 212.814 370.222 212.621C370.13 212.429 370.119 212.208 370.19 212.007C370.262 211.805 370.41 211.641 370.603 211.549C370.796 211.458 371.017 211.446 371.219 211.517L396.957 220.695C397.065 220.713 397.167 220.752 397.259 220.81C397.351 220.868 397.431 220.943 397.494 221.032C397.557 221.12 397.602 221.22 397.626 221.326C397.65 221.432 397.653 221.542 397.635 221.649C397.617 221.756 397.577 221.858 397.52 221.95C397.462 222.042 397.386 222.121 397.298 222.184C397.209 222.247 397.109 222.292 397.003 222.316C396.897 222.34 396.787 222.343 396.68 222.325V222.227Z" fill="white"/>
<path d="M334.496 197.124C334.279 197.134 334.068 197.059 333.907 196.914C333.746 196.768 333.65 196.565 333.639 196.349C333.628 196.133 333.704 195.922 333.849 195.761C333.994 195.601 334.198 195.504 334.414 195.493C345.921 194.352 348.369 180.399 348.402 180.252C348.438 180.041 348.555 179.852 348.73 179.727C348.904 179.602 349.12 179.551 349.332 179.584C349.545 179.624 349.733 179.744 349.858 179.921C349.983 180.097 350.034 180.316 350.001 180.529C350.001 180.676 347.308 195.836 334.577 197.107L334.496 197.124Z" fill="white"/>
<path d="M425.177 197.124C425.102 197.14 425.024 197.14 424.949 197.124C421.929 196.346 419.26 194.572 417.376 192.089C415.492 189.607 414.503 186.562 414.568 183.447C414.572 183.341 414.598 183.238 414.643 183.142C414.689 183.046 414.753 182.961 414.832 182.891C414.912 182.821 415.004 182.768 415.105 182.734C415.205 182.701 415.312 182.688 415.417 182.697C415.524 182.701 415.628 182.727 415.725 182.772C415.821 182.817 415.908 182.881 415.979 182.96C416.051 183.039 416.106 183.131 416.141 183.232C416.176 183.332 416.191 183.439 416.184 183.545C416.114 186.301 416.99 188.998 418.668 191.186C420.346 193.375 422.724 194.924 425.406 195.575C425.622 195.605 425.818 195.72 425.949 195.895C426.081 196.069 426.138 196.288 426.108 196.504C426.077 196.72 425.962 196.916 425.788 197.047C425.613 197.179 425.394 197.235 425.177 197.205V197.124Z" fill="white"/>
<path d="M386.463 37.6353C386.463 37.6353 380.669 43.7318 381.566 45.1174C382.464 46.503 385.679 46.2421 385.679 46.2421" fill="white"/>
<path d="M385.01 47.0734C384.25 47.1476 383.482 47.0499 382.764 46.7874C382.047 46.525 381.397 46.1046 380.865 45.5574C379.836 43.9273 383.019 40.064 385.859 37.0809C385.935 37.0045 386.025 36.9439 386.125 36.9025C386.224 36.8612 386.331 36.8398 386.438 36.8398C386.546 36.8398 386.653 36.8612 386.752 36.9025C386.852 36.9439 386.942 37.0045 387.018 37.0809C387.094 37.1553 387.154 37.2441 387.195 37.342C387.237 37.44 387.258 37.5452 387.258 37.6515C387.258 37.7577 387.237 37.8629 387.195 37.9609C387.154 38.0589 387.094 38.1476 387.018 38.222C384.39 40.9932 382.121 44.0577 382.252 44.7424C382.627 45.3129 384.455 45.5085 385.516 45.4107C385.73 45.3926 385.943 45.4594 386.108 45.5967C386.273 45.734 386.377 45.9308 386.398 46.1443C386.409 46.2505 386.399 46.3579 386.367 46.4602C386.336 46.5624 386.285 46.6574 386.217 46.7394C386.148 46.8215 386.064 46.889 385.969 46.938C385.874 46.987 385.77 47.0164 385.663 47.0245L385.01 47.0734Z" fill="#353B49"/>
<path d="M383.835 51.0182C383.835 51.0182 388.732 53.5612 390.935 48.8176L383.835 51.0182Z" fill="white"/>
<path d="M386.708 52.5015C385.577 52.486 384.463 52.2246 383.443 51.7354C383.348 51.6872 383.264 51.6205 383.194 51.5391C383.125 51.4577 383.073 51.3634 383.041 51.2616C383.009 51.1598 382.998 51.0526 383.008 50.9464C383.019 50.8402 383.05 50.7371 383.101 50.6432C383.199 50.4513 383.369 50.3058 383.573 50.2386C383.778 50.1714 384.002 50.1879 384.194 50.2846C385.347 50.8563 386.666 51.0007 387.916 50.6921C388.425 50.496 388.888 50.1982 389.279 49.8171C389.669 49.4359 389.977 48.9793 390.184 48.4752C390.289 48.3053 390.453 48.1799 390.645 48.1227C390.836 48.0656 391.042 48.0806 391.224 48.1651C391.405 48.2495 391.549 48.3975 391.628 48.5809C391.707 48.7642 391.716 48.9703 391.653 49.1599C391.274 50.1483 390.603 50.9979 389.728 51.595C388.853 52.1921 387.816 52.5084 386.757 52.5015H386.708Z" fill="#353B49"/>
<path d="M395.375 39.2093C395.711 38.3741 395.503 37.5036 394.909 37.265C394.315 37.0264 393.561 37.51 393.225 38.3452C392.888 39.1804 393.097 40.0509 393.69 40.2895C394.284 40.5281 395.038 40.0445 395.375 39.2093Z" fill="#353B49"/>
<path d="M383.355 37.2354C383.691 36.4002 383.483 35.5297 382.889 35.2911C382.295 35.0525 381.541 35.5361 381.204 36.3713C380.868 37.2065 381.077 38.077 381.67 38.3156C382.264 38.5542 383.018 38.0706 383.355 37.2354Z" fill="#353B49"/>
<path d="M78.6585 343.946H57.4407C57.2999 343.947 57.1612 343.912 57.0382 343.843C56.9152 343.774 56.8121 343.675 56.7389 343.555C50.4388 332.992 43.0453 316.675 43.5512 298.891C43.5527 298.757 43.5878 298.625 43.6534 298.508C43.719 298.392 43.813 298.293 43.9266 298.222C44.0426 298.162 44.1714 298.131 44.302 298.131C44.4326 298.131 44.5614 298.162 44.6774 298.222C50.6932 300.918 56.2498 304.537 61.1456 308.948C61.2752 309.098 61.3457 309.29 61.3441 309.487C61.3426 309.685 61.269 309.876 61.1371 310.024C61.0053 310.171 60.8241 310.266 60.6275 310.29C60.4308 310.314 60.2321 310.266 60.0684 310.155C55.5788 306.181 50.565 302.841 45.167 300.227C45.0365 316.936 51.9241 332.259 57.8977 342.381H78.6258C78.8423 342.381 79.0498 342.467 79.2029 342.62C79.3559 342.773 79.4419 342.98 79.4419 343.196C79.4419 343.413 79.3559 343.62 79.2029 343.773C79.0498 343.926 78.8423 344.012 78.6258 344.012L78.6585 343.946Z" fill="#353B49"/>
<path d="M90.7526 343.946H67.9027C67.7336 343.943 67.5696 343.888 67.4326 343.789C67.2955 343.69 67.1919 343.551 67.1356 343.392C63.3473 332.442 60.871 321.083 59.7584 309.551C58.3229 296.144 59.6561 282.584 63.6755 269.712C63.7169 269.588 63.7875 269.476 63.8812 269.385C63.9749 269.295 64.0891 269.228 64.2141 269.19C64.3396 269.157 64.4711 269.153 64.5984 269.178C64.7257 269.204 64.8455 269.258 64.9485 269.337C65.177 269.516 86.5254 286.893 91.7319 314.001C91.7512 314.108 91.7492 314.218 91.726 314.324C91.7028 314.431 91.6589 314.531 91.5967 314.621C91.5346 314.71 91.4554 314.786 91.3638 314.845C91.2722 314.904 91.1699 314.944 91.0627 314.963C90.9555 314.982 90.8456 314.98 90.7392 314.957C90.6328 314.934 90.5321 314.89 90.4426 314.828C90.3532 314.766 90.2769 314.687 90.2181 314.595C90.1592 314.504 90.119 314.402 90.0997 314.295C85.6277 291.001 68.882 275.009 64.818 271.391C61.1761 283.712 60.0003 296.629 61.3578 309.404C62.4401 320.613 64.8227 331.657 68.4576 342.316H90.6547C90.8711 342.316 91.0787 342.402 91.2317 342.555C91.3848 342.708 91.4707 342.915 91.4707 343.131C91.4707 343.347 91.3848 343.555 91.2317 343.707C91.0787 343.86 90.8711 343.946 90.6547 343.946H90.7526Z" fill="#353B49"/>
<path d="M102.243 343.946H82.0696C81.8587 343.946 81.6559 343.865 81.5038 343.719C81.3517 343.573 81.262 343.374 81.2535 343.164C81.074 337.507 82.2655 328.199 89.0062 316.023C89.4469 315.24 89.8712 314.474 90.2956 313.74C102.096 293.804 112.966 293.788 113.39 293.788C113.576 293.792 113.754 293.858 113.897 293.977C114.039 294.095 114.137 294.259 114.174 294.44C118.76 315.631 109.098 334.296 102.928 343.587C102.853 343.699 102.75 343.79 102.631 343.853C102.511 343.916 102.378 343.948 102.243 343.946ZM82.8694 342.316H101.818C107.776 333.22 116.769 315.452 112.737 295.483C110.322 295.842 101.313 298.255 91.7155 314.572C91.2912 315.289 90.8668 316.039 90.4262 316.821C84.1751 328.118 82.8367 336.806 82.8694 342.316Z" fill="#353B49"/>
<path d="M98.5705 375.081H59.0075L52.6422 343.147H104.952L98.5705 375.081Z" fill="#353B49"/>
<path d="M56.9185 82.8051C57.1553 95.9018 62.5308 108.382 71.888 117.561C81.2453 126.739 93.8363 131.881 106.952 131.881C120.067 131.881 132.658 126.739 142.015 117.561C151.372 108.382 156.748 95.9018 156.985 82.8051H106.96V32.8264C93.6893 32.8307 80.9636 38.0977 71.58 47.4696C62.1964 56.8415 56.9228 69.5513 56.9185 82.8051Z" fill="#F7D3C3"/>
<path d="M115.039 25.4583V75.437H165.08C165.076 62.1831 159.802 49.4733 150.419 40.1014C141.035 30.7296 128.309 25.4626 115.039 25.4583Z" fill="#FAEDE7"/>
<path d="M98.3746 191.76H64.0997V221.852H98.3746V191.76Z" fill="#F7D3C3"/>
<path d="M82.8041 188.647H78.8217V194.695H82.8041V188.647Z" fill="#FAEDE7"/>
<path d="M80.8291 201.411H70.4488C70.2323 201.411 70.0248 201.325 69.8717 201.172C69.7187 201.019 69.6327 200.812 69.6327 200.596C69.6327 200.38 69.7187 200.172 69.8717 200.019C70.0248 199.867 70.2323 199.781 70.4488 199.781H80.8291C81.0456 199.781 81.2531 199.867 81.4062 200.019C81.5592 200.172 81.6452 200.38 81.6452 200.596C81.6452 200.812 81.5592 201.019 81.4062 201.172C81.2531 201.325 81.0456 201.411 80.8291 201.411Z" fill="white"/>
<path d="M88.794 207.931H70.4488C70.2323 207.931 70.0248 207.845 69.8717 207.692C69.7187 207.54 69.6327 207.332 69.6327 207.116C69.6327 206.9 69.7187 206.693 69.8717 206.54C70.0248 206.387 70.2323 206.301 70.4488 206.301H88.794C89.0104 206.301 89.218 206.387 89.371 206.54C89.5241 206.693 89.6101 206.9 89.6101 207.116C89.6101 207.332 89.5241 207.54 89.371 207.692C89.218 207.845 89.0104 207.931 88.794 207.931Z" fill="white"/>
<path d="M93.0865 201.655H85.4318C85.2154 201.655 85.0078 201.569 84.8547 201.417C84.7017 201.264 84.6157 201.056 84.6157 200.84C84.6157 200.624 84.7017 200.417 84.8547 200.264C85.0078 200.111 85.2154 200.025 85.4318 200.025H93.0865C93.3029 200.025 93.5105 200.111 93.6636 200.264C93.8166 200.417 93.9026 200.624 93.9026 200.84C93.9026 201.056 93.8166 201.264 93.6636 201.417C93.5105 201.569 93.3029 201.655 93.0865 201.655Z" fill="white"/>
<path d="M51.8424 18.2371H21.5826V44.7913H51.8424V18.2371Z" fill="#F7D3C3"/>
<path d="M38.0672 15.4985H34.5581V20.8452H38.0672V15.4985Z" fill="#FAEDE7"/>
<path d="M46.7338 26.6319H27.1482C27.001 26.6319 26.8599 26.5735 26.7558 26.4696C26.6517 26.3656 26.5933 26.2247 26.5933 26.0777C26.5933 25.9307 26.6517 25.7897 26.7558 25.6858C26.8599 25.5818 27.001 25.5234 27.1482 25.5234H46.7338C46.881 25.5234 47.0222 25.5818 47.1262 25.6858C47.2303 25.7897 47.2888 25.9307 47.2888 26.0777C47.2888 26.2247 47.2303 26.3656 47.1262 26.4696C47.0222 26.5735 46.881 26.6319 46.7338 26.6319Z" fill="white"/>
<path d="M46.7339 32.3373H27.1482C27.0153 32.3146 26.8948 32.2457 26.8078 32.1428C26.7209 32.0398 26.6732 31.9095 26.6732 31.7749C26.6732 31.6402 26.7209 31.5099 26.8078 31.407C26.8948 31.3041 27.0153 31.2352 27.1482 31.2125H46.7339C46.8158 31.1985 46.8999 31.2026 46.9801 31.2244C47.0604 31.2462 47.1349 31.2852 47.1984 31.3388C47.262 31.3924 47.3131 31.4591 47.3481 31.5344C47.3832 31.6098 47.4013 31.6918 47.4013 31.7749C47.4013 31.8579 47.3832 31.94 47.3481 32.0153C47.3131 32.0906 47.262 32.1574 47.1984 32.211C47.1349 32.2645 47.0604 32.3036 46.9801 32.3254C46.8999 32.3472 46.8158 32.3512 46.7339 32.3373Z" fill="white"/>
<path d="M39.6341 38.0264H27.1809C27.0337 38.0264 26.8926 37.968 26.7885 37.8641C26.6844 37.7602 26.626 37.6192 26.626 37.4722C26.626 37.3252 26.6844 37.1842 26.7885 37.0803C26.8926 36.9764 27.0337 36.918 27.1809 36.918H39.6341C39.7813 36.918 39.9224 36.9764 40.0265 37.0803C40.1306 37.1842 40.189 37.3252 40.189 37.4722C40.189 37.6192 40.1306 37.7602 40.0265 37.8641C39.9224 37.968 39.7813 38.0264 39.6341 38.0264Z" fill="white"/>
<path d="M114.598 153.779H59.2197C59.0376 153.753 58.8711 153.661 58.7508 153.522C58.6304 153.383 58.5642 153.205 58.5642 153.021C58.5642 152.838 58.6304 152.66 58.7508 152.521C58.8711 152.381 59.0376 152.29 59.2197 152.263H114.598C114.78 152.29 114.947 152.381 115.067 152.521C115.187 152.66 115.254 152.838 115.254 153.021C115.254 153.205 115.187 153.383 115.067 153.522C114.947 153.661 114.78 153.753 114.598 153.779Z" fill="#D1D3D4"/>
<path d="M135.473 153.779H124.929C124.747 153.753 124.581 153.661 124.461 153.522C124.34 153.383 124.274 153.205 124.274 153.021C124.274 152.838 124.34 152.66 124.461 152.521C124.581 152.381 124.747 152.29 124.929 152.263H135.473C135.655 152.29 135.822 152.381 135.942 152.521C136.062 152.66 136.129 152.838 136.129 153.021C136.129 153.205 136.062 153.383 135.942 153.522C135.822 153.661 135.655 153.753 135.473 153.779Z" fill="#D1D3D4"/>
<path d="M154.961 152.85H144.434C144.234 152.85 144.043 152.771 143.903 152.631C143.762 152.49 143.683 152.299 143.683 152.1C143.687 151.903 143.767 151.715 143.907 151.575C144.047 151.435 144.236 151.355 144.434 151.351H154.961C155.16 151.351 155.351 151.43 155.492 151.57C155.632 151.711 155.712 151.902 155.712 152.1C155.714 152.2 155.696 152.298 155.659 152.39C155.622 152.482 155.567 152.566 155.497 152.636C155.426 152.706 155.343 152.761 155.251 152.798C155.159 152.835 155.06 152.853 154.961 152.85Z" fill="#D1D3D4"/>
<path d="M140.402 166.625H58.7953C58.5975 166.62 58.409 166.54 58.2691 166.4C58.1292 166.261 58.0487 166.072 58.0446 165.875C58.0446 165.676 58.1237 165.485 58.2645 165.345C58.4053 165.204 58.5962 165.125 58.7953 165.125H140.402C140.501 165.123 140.6 165.141 140.692 165.177C140.784 165.214 140.868 165.27 140.938 165.34C141.008 165.41 141.063 165.493 141.1 165.585C141.137 165.677 141.155 165.776 141.153 165.875C141.153 165.973 141.133 166.071 141.096 166.162C141.058 166.253 141.003 166.335 140.933 166.405C140.863 166.475 140.781 166.53 140.689 166.568C140.598 166.605 140.501 166.625 140.402 166.625Z" fill="#D1D3D4"/>
<path d="M85.546 179.47H59.0239C58.8247 179.47 58.6338 179.391 58.493 179.25C58.3522 179.109 58.2731 178.919 58.2731 178.72C58.2772 178.522 58.3577 178.334 58.4976 178.194C58.6375 178.054 58.826 177.974 59.0239 177.97H85.546C85.7439 177.974 85.9324 178.054 86.0723 178.194C86.2122 178.334 86.2927 178.522 86.2968 178.72C86.2968 178.919 86.2177 179.109 86.0769 179.25C85.9361 179.391 85.7452 179.47 85.546 179.47Z" fill="#D1D3D4"/>
<path d="M149.118 179.013H101.933C101.834 179.016 101.735 178.998 101.643 178.961C101.551 178.924 101.467 178.869 101.397 178.799C101.327 178.729 101.271 178.645 101.235 178.553C101.198 178.461 101.18 178.363 101.182 178.264C101.182 178.065 101.261 177.874 101.402 177.733C101.543 177.593 101.734 177.514 101.933 177.514H149.118C149.316 177.518 149.504 177.598 149.644 177.738C149.784 177.878 149.864 178.066 149.869 178.264C149.869 178.462 149.789 178.653 149.649 178.794C149.508 178.934 149.317 179.013 149.118 179.013Z" fill="#D1D3D4"/>
<path d="M114.598 153.828H59.2196C59.0032 153.828 58.7956 153.742 58.6426 153.59C58.4895 153.437 58.4036 153.229 58.4036 153.013C58.4077 152.798 58.4951 152.594 58.6472 152.442C58.7994 152.29 59.0045 152.202 59.2196 152.198H114.598C114.814 152.198 115.022 152.284 115.175 152.437C115.328 152.59 115.414 152.797 115.414 153.013C115.414 153.229 115.328 153.437 115.175 153.59C115.022 153.742 114.814 153.828 114.598 153.828Z" fill="#FAEDE7"/>
<path d="M135.473 153.828H124.929C124.713 153.828 124.505 153.742 124.352 153.59C124.199 153.437 124.113 153.229 124.113 153.013C124.118 152.798 124.205 152.594 124.357 152.442C124.509 152.29 124.714 152.202 124.929 152.198H135.473C135.688 152.202 135.893 152.29 136.046 152.442C136.198 152.594 136.285 152.798 136.289 153.013C136.289 153.229 136.203 153.437 136.05 153.59C135.897 153.742 135.69 153.828 135.473 153.828Z" fill="#FAEDE7"/>
<path d="M154.961 152.916H144.433C144.217 152.916 144.009 152.83 143.856 152.677C143.703 152.524 143.617 152.317 143.617 152.1C143.617 151.884 143.703 151.677 143.856 151.524C144.009 151.371 144.217 151.285 144.433 151.285H154.961C155.177 151.285 155.385 151.371 155.538 151.524C155.691 151.677 155.777 151.884 155.777 152.1C155.777 152.317 155.691 152.524 155.538 152.677C155.385 152.83 155.177 152.916 154.961 152.916Z" fill="#FAEDE7"/>
<path d="M140.402 166.69H58.7953C58.5789 166.69 58.3713 166.604 58.2183 166.451C58.0652 166.298 57.9792 166.091 57.9792 165.875C57.9792 165.658 58.0652 165.451 58.2183 165.298C58.3713 165.145 58.5789 165.06 58.7953 165.06H140.402C140.619 165.06 140.826 165.145 140.979 165.298C141.132 165.451 141.218 165.658 141.218 165.875C141.218 166.091 141.132 166.298 140.979 166.451C140.826 166.604 140.619 166.69 140.402 166.69Z" fill="#FAEDE7"/>
<path d="M85.546 179.535H59.0238C58.8074 179.535 58.5998 179.449 58.4468 179.296C58.2937 179.143 58.2078 178.936 58.2078 178.72C58.2119 178.505 58.2993 178.3 58.4514 178.148C58.6036 177.996 58.8087 177.909 59.0238 177.905H85.546C85.7625 177.905 85.97 177.991 86.1231 178.143C86.2761 178.296 86.3621 178.504 86.3621 178.72C86.3621 178.936 86.2761 179.143 86.1231 179.296C85.97 179.449 85.7625 179.535 85.546 179.535Z" fill="#FAEDE7"/>
<path d="M149.118 179.078H101.933C101.716 179.078 101.509 178.992 101.356 178.84C101.203 178.687 101.117 178.479 101.117 178.263C101.117 178.047 101.203 177.84 101.356 177.687C101.509 177.534 101.716 177.448 101.933 177.448H149.118C149.334 177.448 149.542 177.534 149.695 177.687C149.848 177.84 149.934 178.047 149.934 178.263C149.934 178.479 149.848 178.687 149.695 178.84C149.542 178.992 149.334 179.078 149.118 179.078Z" fill="#FAEDE7"/>
<path d="M203.125 138.636H186.249V186.43H203.125V138.636Z" fill="#F7D3C3"/>
<path d="M232.242 154.872H215.366V186.447H232.242V154.872Z" fill="#FAEDE7"/>
<path d="M261.343 145.629H244.467V186.43H261.343V145.629Z" fill="#FAEDE7"/>
<path d="M268.672 36.0376H180.536C180.32 36.0376 180.112 35.9517 179.959 35.7988C179.806 35.646 179.72 35.4387 179.72 35.2225C179.72 35.0064 179.806 34.799 179.959 34.6462C180.112 34.4933 180.32 34.4075 180.536 34.4075H268.672C268.888 34.4075 269.096 34.4933 269.249 34.6462C269.402 34.799 269.488 35.0064 269.488 35.2225C269.484 35.4374 269.396 35.6423 269.244 35.7942C269.092 35.9462 268.887 36.0334 268.672 36.0376Z" fill="#D1D3D4"/>
<path d="M249.657 48.8828H181.858C181.642 48.8828 181.434 48.7969 181.281 48.6441C181.128 48.4912 181.042 48.2839 181.042 48.0677C181.046 47.8529 181.134 47.648 181.286 47.496C181.438 47.3441 181.643 47.2569 181.858 47.2527H249.657C249.874 47.2527 250.081 47.3386 250.234 47.4914C250.387 47.6443 250.473 47.8516 250.473 48.0677C250.473 48.2839 250.387 48.4912 250.234 48.6441C250.081 48.7969 249.874 48.8828 249.657 48.8828Z" fill="#D1D3D4"/>
<path d="M259.173 61.2226H180.569C180.353 61.2226 180.145 61.1367 179.992 60.9839C179.839 60.831 179.753 60.6237 179.753 60.4076C179.753 60.1914 179.839 59.9841 179.992 59.8312C180.145 59.6784 180.353 59.5925 180.569 59.5925H259.173C259.388 59.5967 259.593 59.6839 259.745 59.8359C259.897 59.9878 259.985 60.1927 259.989 60.4076C259.989 60.6237 259.903 60.831 259.75 60.9839C259.597 61.1367 259.389 61.2226 259.173 61.2226Z" fill="#D1D3D4"/>
<path d="M271.691 48.2798H259.173C258.956 48.2798 258.749 48.1939 258.596 48.041C258.443 47.8882 258.357 47.6809 258.357 47.4647C258.357 47.2485 258.443 47.0412 258.596 46.8884C258.749 46.7355 258.956 46.6497 259.173 46.6497H271.691C271.908 46.6497 272.115 46.7355 272.268 46.8884C272.421 47.0412 272.507 47.2485 272.507 47.4647C272.507 47.6809 272.421 47.8882 272.268 48.041C272.115 48.1939 271.908 48.2798 271.691 48.2798Z" fill="#D1D3D4"/>
<path d="M228.032 123.998H182.071C181.854 123.998 181.647 123.912 181.494 123.759C181.34 123.606 181.255 123.399 181.255 123.182V85.5599C181.255 85.3438 181.34 85.1364 181.494 84.9836C181.647 84.8307 181.854 84.7449 182.071 84.7449C182.287 84.7449 182.495 84.8307 182.648 84.9836C182.801 85.1364 182.887 85.3438 182.887 85.5599V122.367H228.032C228.248 122.367 228.456 122.453 228.609 122.606C228.762 122.759 228.848 122.966 228.848 123.182C228.848 123.399 228.762 123.606 228.609 123.759C228.456 123.912 228.248 123.998 228.032 123.998Z" fill="#FAEDE7"/>
<path d="M182.071 123.998C181.909 124.003 181.75 123.96 181.614 123.874C181.478 123.788 181.371 123.662 181.307 123.514C181.244 123.366 181.226 123.202 181.258 123.044C181.289 122.886 181.368 122.741 181.483 122.628L200.775 101.975C200.862 101.884 200.97 101.815 201.089 101.772C201.208 101.73 201.335 101.715 201.46 101.73C201.584 101.741 201.702 101.78 201.807 101.846C201.912 101.911 202 102 202.064 102.105L206.112 108.495L219.169 94.1505C219.245 94.0741 219.335 94.0135 219.435 93.9721C219.534 93.9307 219.641 93.9094 219.749 93.9094C219.856 93.9094 219.963 93.9307 220.062 93.9721C220.162 94.0135 220.252 94.0741 220.328 94.1505C220.404 94.2249 220.464 94.3136 220.506 94.4116C220.547 94.5096 220.568 94.6148 220.568 94.7211C220.568 94.8273 220.547 94.9325 220.506 95.0305C220.464 95.1284 220.404 95.2172 220.328 95.2916L206.553 110.435C206.467 110.53 206.36 110.604 206.242 110.652C206.123 110.7 205.995 110.721 205.867 110.712C205.74 110.701 205.617 110.66 205.51 110.592C205.402 110.524 205.312 110.431 205.247 110.321L201.216 103.801L182.642 123.672C182.575 123.763 182.49 123.84 182.391 123.896C182.293 123.952 182.184 123.987 182.071 123.998Z" fill="#FAEDE7"/>
<path d="M274.449 186.887H174.269C174.053 186.887 173.845 186.801 173.692 186.648C173.539 186.495 173.453 186.288 173.453 186.072C173.453 185.855 173.539 185.648 173.692 185.495C173.845 185.342 174.053 185.257 174.269 185.257H274.449C274.666 185.257 274.873 185.342 275.026 185.495C275.18 185.648 275.266 185.855 275.266 186.072C275.261 186.286 275.174 186.491 275.022 186.643C274.87 186.795 274.665 186.883 274.449 186.887Z" fill="#FAEDE7"/>
</svg>
