<svg width="55" height="55" viewBox="0 0 55 55" fill="none" xmlns="http://www.w3.org/2000/svg">
<path d="M27.5 15.9485C26.6101 15.9485 25.8887 16.6699 25.8887 17.5598V20.7825C25.8887 21.6724 26.6101 22.3938 27.5 22.3938C28.3899 22.3938 29.1113 21.6724 29.1113 20.7825V17.5598C29.1113 16.6699 28.3899 15.9485 27.5 15.9485Z" fill="#F24463"/>
<path d="M38.4147 19.6432L35.192 16.4205C34.5629 15.7912 33.5426 15.7912 32.9133 16.4205C32.284 17.0498 32.284 18.07 32.9133 18.6993L36.136 21.9219C36.7651 22.5512 37.7855 22.5512 38.4147 21.9219C39.044 21.2926 39.044 20.2725 38.4147 19.6432Z" fill="#F24463"/>
<path d="M22.0867 16.4205C21.4574 15.7911 20.4371 15.7911 19.808 16.4205L16.5853 19.6432C15.956 20.2724 15.956 21.2926 16.5853 21.9219C17.2145 22.5512 18.2349 22.5512 18.864 21.9219L22.0867 18.6992C22.716 18.07 22.716 17.0498 22.0867 16.4205Z" fill="#F24463"/>
<path d="M39.204 12.1275L38.5312 10.1088C37.5944 7.29836 34.543 6.21436 32.1712 7.14249L32.0858 6.88618C31.4165 4.87825 29.6164 3.60229 27.5 3.60229C25.3836 3.60229 23.5835 4.87825 22.9142 6.88618L22.8288 7.14249C20.4565 6.21458 17.4057 7.29825 16.4688 10.1088L15.796 12.1275C5.98791 16.6702 0 25.7728 0 33.6731C0 39.3182 2.90952 43.9722 8.41403 47.1319C13.2759 49.9226 19.8757 51.3977 27.5 51.3977C35.1243 51.3977 41.7241 49.9226 46.586 47.1319C52.0905 43.9722 55 39.3182 55 33.6731C55 25.5442 48.7522 16.5499 39.204 12.1275ZM27.5 48.1966C16.3007 48.1966 3.22266 44.3771 3.22266 33.6731C3.22266 26.3695 9.3283 18.4269 17.7405 14.7873C18.1612 14.6053 18.4844 14.2527 18.6293 13.818L19.5261 11.1278C19.9741 9.78345 21.668 9.72888 22.3436 10.6818C23.1039 11.754 24.7694 11.511 25.1867 10.2592L25.9713 7.90518C26.312 6.88285 27.2274 6.80346 27.4998 6.80346C27.7722 6.80346 28.6877 6.88285 29.0283 7.90518L29.8129 10.2592C30.2286 11.5065 31.8927 11.7581 32.6559 10.6818C33.3332 9.72652 35.025 9.78206 35.4735 11.1278L36.3703 13.818C36.5152 14.2528 36.8384 14.6054 37.2591 14.7873C45.6717 18.4269 51.7773 26.3695 51.7773 33.6731C51.7773 44.3771 38.6993 48.1966 27.5 48.1966Z" fill="#FAEDE7"/>
</svg>
