<svg width="90" height="90" viewBox="0 0 90 90" fill="none" xmlns="http://www.w3.org/2000/svg">
<path d="M73.8327 64.5532C75.315 62.0378 74.9772 58.7373 72.8194 56.5795L59.3035 43.0622C65.9916 43.7095 72.7265 40.4315 77.4606 35.698C85.2126 27.9454 87.8145 15.89 80.9399 9.01729C80.9399 9.01729 80.9399 9.01665 80.9393 9.01665C80.9393 9.01665 80.9393 9.01665 80.9393 9.01601C73.8256 1.90491 61.6766 5.07914 54.2592 12.4966C49.4168 17.3383 46.2592 24.1047 46.8924 30.6518L33.3777 17.1365C31.2193 14.9799 27.9201 14.6422 25.4047 16.1239L14.2035 4.92469C11.6413 2.35993 7.48849 2.35737 4.92437 4.92341C2.35961 7.48689 2.35769 11.6397 4.92373 14.2032L16.1236 25.4043C14.6419 27.9204 14.9796 31.2202 17.1362 33.3787L32.1332 48.3751L7.84802 69.3796C4.05856 72.5916 3.32861 78.7247 7.2988 82.6956C11.2446 86.6427 17.3681 85.9768 20.6084 82.154L41.5841 57.8253L56.5785 72.8191C58.7453 74.9853 62.0464 75.3102 64.5529 73.8323L75.7956 85.0758C78.3585 87.6399 82.5113 87.6424 85.0754 85.0764C87.6408 82.5136 87.6421 78.3607 85.0761 75.7966L73.8327 64.5532ZM78.568 11.3892C78.6751 14.9556 71.1756 23.4208 68.1795 26.4169C64.5464 30.0506 56.4433 36.9099 53.1511 36.8054C53.0435 33.239 60.5231 24.7936 63.5384 21.7783C66.5761 18.7406 75.0907 11.2648 78.568 11.3892ZM75.1407 33.378C69.5433 38.9741 62.1304 41.1069 56.7599 39.1632C61.3985 37.0912 66.9029 32.3341 70.4995 28.7375C74.0954 25.1416 78.8481 19.6429 80.9245 15.0024C83.0759 20.9682 80.1087 28.41 75.1407 33.378V33.378ZM56.5791 14.8172C62.1804 9.21596 69.5888 7.08443 74.9593 9.03011C70.3175 11.1046 64.8169 15.8586 61.2184 19.4577C57.6218 23.0543 52.8666 28.5561 50.7927 33.1973C48.849 27.8255 50.9824 20.4126 56.5791 14.8172ZM7.24432 7.244C8.52286 5.96418 10.598 5.95842 11.8829 7.244L22.9367 18.2964L18.2968 22.9376L7.24368 11.8826C5.96451 10.6047 5.95746 8.52959 7.24432 7.244ZM18.1148 80.0225C16.0941 82.4059 12.197 82.9545 9.61939 80.3756C7.05527 77.8115 7.58462 73.9035 9.98212 71.8719L34.4595 50.7014L39.2583 55.499L18.1148 80.0225ZM58.8991 70.4992L19.4567 31.0587C18.1782 29.7789 18.1782 27.6967 19.4567 26.4176L26.4172 19.4571C27.6958 18.1792 29.778 18.1779 31.0584 19.4564C31.1161 19.5147 70.4046 58.8052 70.4988 58.8994C71.7787 60.1786 71.7787 62.2601 70.4988 63.54L63.5396 70.4992C62.2605 71.7783 60.1783 71.7783 58.8991 70.4992ZM82.7555 82.7565C81.4737 84.0388 79.3992 84.0395 78.1169 82.7558L67.0202 71.6591L71.6588 67.0205L82.7561 78.1172C84.0353 79.3957 84.0424 81.4702 82.7555 82.7565V82.7565Z" fill="#343B42"/>
<path d="M46.6821 45.0418C46.6821 45.9479 45.9477 46.6824 45.0415 46.6824C44.1353 46.6824 43.4009 45.9479 43.4009 45.0418C43.4009 44.1356 44.1353 43.4011 45.0415 43.4011C45.9477 43.4011 46.6821 44.1356 46.6821 45.0418Z" fill="#D51D48"/>
<path d="M28.8006 26.4802C28.1597 25.8399 27.1215 25.8399 26.4807 26.4802C25.8398 27.121 25.8398 28.1599 26.4807 28.8008L38.661 40.9811C39.3025 41.622 40.3408 41.622 40.9816 40.9811C41.6225 40.3409 41.6225 39.3021 40.9816 38.6612L28.8006 26.4802Z" fill="#D51D48"/>
</svg>
