<svg width="90" height="90" viewBox="0 0 90 90" fill="none" xmlns="http://www.w3.org/2000/svg">
<path d="M82.3477 22.0936C78.2438 18.8228 72.4512 16.145 65.131 14.1348C51.0525 10.2686 35.1765 9.85132 29.0041 9.85132C13.0112 9.85132 0 22.8626 0 38.8556V51.1444C0 67.1376 13.0112 80.1487 29.0041 80.1487C36.3786 80.1487 41.917 77.8386 47.7805 75.3928C53.8443 72.8635 60.1142 70.2482 68.9324 70.2482C80.5491 70.2482 90 60.7971 90 49.1806V36.8918C90 31.1193 87.4253 26.1404 82.3477 22.0936ZM80.8675 52.1441C81.533 52.8513 82.6455 52.8845 83.3523 52.2192C84.5445 51.0966 85.5932 49.846 86.4844 48.4993V49.1806C86.4844 58.859 78.6106 66.7326 68.9324 66.7326C59.4104 66.7326 52.8101 69.4856 46.4272 72.148C40.8976 74.4544 35.6748 76.6331 29.0041 76.6331C15.5006 76.6331 4.41773 66.0769 3.56977 52.7834C8.5057 61.7611 18.0557 67.8595 29.0041 67.8595C36.3786 67.8595 41.917 65.5494 47.7805 63.1036C53.8443 60.5742 60.1142 57.959 68.9324 57.959C69.5876 57.959 70.2494 57.928 70.8998 57.8672C71.8664 57.7767 72.5766 56.9197 72.486 55.9531C72.3955 54.9867 71.5375 54.2767 70.572 54.367C70.03 54.4177 69.4786 54.4435 68.9324 54.4435C59.4104 54.4435 52.8101 57.1966 46.4272 59.859C40.8976 62.1654 35.6748 64.344 29.0041 64.344C14.9497 64.344 3.51562 52.91 3.51562 38.8558C3.51562 24.8013 14.9497 13.3671 29.0041 13.3671C35.0339 13.3671 50.5339 13.7723 64.2001 17.525C78.9868 21.5858 86.4844 28.1016 86.4844 36.8918C86.4844 41.6897 84.4643 46.3433 80.9423 49.6593C80.2355 50.3248 80.202 51.4373 80.8675 52.1441Z" fill="#343B42"/>
<path d="M79.422 53.2661C79.0086 52.3877 77.9611 52.0107 77.083 52.4241C77.0704 52.4299 77.0537 52.4382 77.0412 52.4443C76.173 52.8785 75.8211 53.9344 76.2551 54.8026C76.5631 55.4185 77.1839 55.7747 77.8289 55.7747C78.0894 55.7747 78.3538 55.7165 78.603 55.594C79.4649 55.1733 79.8317 54.1367 79.422 53.2661Z" fill="#343B42"/>
<path d="M41.6932 17.3781L41.6027 17.3707C40.6334 17.2951 39.7877 18.0154 39.7106 18.9833C39.6334 19.951 40.3553 20.7981 41.323 20.8754L41.4128 20.8824C41.4605 20.8863 41.5078 20.8882 41.5549 20.8882C42.4621 20.8882 43.2315 20.1904 43.3053 19.2705C43.3826 18.3027 42.6609 17.4556 41.6932 17.3781Z" fill="#343B42"/>
<path d="M81.8711 32.1563C80.1276 28.7102 76.2481 25.7322 70.3401 23.305C65.5597 21.341 60.3318 20.1003 56.7879 19.4051C54.6639 18.9887 52.4382 18.6167 50.1723 18.2999C49.2113 18.1642 48.3226 18.8357 48.1879 19.7974C48.0535 20.7589 48.7239 21.6472 49.6854 21.7816C51.888 22.0896 54.0499 22.4508 56.1113 22.8551C68.1857 25.2231 76.4314 29.1917 78.7342 33.743C79.2179 34.6995 79.4531 35.7294 79.4531 36.8916C79.4531 42.6926 74.7336 47.4121 68.9324 47.4121C63.0669 47.4121 57.3711 48.3707 51.5194 50.3428C48.999 51.1923 46.5518 52.2078 44.1852 53.1901C42.6199 53.8396 41.0013 54.5114 39.3947 55.1201C35.3403 56.6568 32.2326 57.3125 29.0041 57.3125C18.8267 57.3125 10.5467 49.0327 10.5467 38.8555C10.5467 28.6781 18.8267 20.3981 29.0041 20.3981C30.9895 20.3981 33.0052 20.4357 34.9947 20.5099C35.3324 20.5223 35.6704 20.5359 36.0086 20.5508C36.9777 20.5948 37.7995 19.8421 37.8422 18.8721C37.8851 17.9023 37.1334 17.0813 36.1636 17.0385C35.8173 17.0232 35.4711 17.0094 35.1255 16.9965C33.0926 16.9208 31.0329 16.8824 29.0039 16.8824C16.888 16.8824 7.03088 26.7394 7.03088 38.8555C7.03088 50.9712 16.8878 60.8281 29.0039 60.8281C32.6839 60.8281 36.164 60.1042 40.6404 58.4076C42.2982 57.7794 43.9425 57.097 45.5328 56.4369C47.8448 55.4775 50.2356 54.4852 52.6421 53.6742C58.1261 51.826 63.4547 50.9276 68.9324 50.9276C76.6721 50.9279 82.9687 44.6313 82.9687 36.8918C82.9687 35.1653 82.6096 33.6163 81.8711 32.1563Z" fill="#343B42"/>
<path d="M30.6876 23.8746C25.7734 23.8746 21.7753 27.5001 21.7753 31.9565C21.7753 36.4129 25.7734 40.0384 30.6876 40.0384C35.6019 40.0384 39.5998 36.4129 39.5998 31.9565C39.5998 27.5001 35.6019 23.8746 30.6876 23.8746ZM30.6876 36.5226C27.7118 36.5226 25.2909 34.4742 25.2909 31.9564C25.2909 29.4386 27.7118 27.3901 30.6876 27.3901C33.6634 27.3901 36.0842 29.4385 36.0842 31.9564C36.0842 34.4742 33.6634 36.5226 30.6876 36.5226Z" fill="#D51D48"/>
</svg>
