<svg width="50" height="50" viewBox="0 0 50 50" fill="none" xmlns="http://www.w3.org/2000/svg">
<path d="M43.75 35.5C43.75 36.6046 42.8546 37.5 41.75 37.5H20.75C19.6454 37.5 18.75 36.6046 18.75 35.5V35.3333C18.75 34.2288 19.6454 33.3333 20.75 33.3333H41.75C42.8546 33.3333 43.75 34.2288 43.75 35.3333V35.5ZM43.75 25.0833C43.75 26.1879 42.8546 27.0833 41.75 27.0833H8.25C7.14543 27.0833 6.25 26.1879 6.25 25.0833V24.9167C6.25 23.8121 7.14543 22.9167 8.25 22.9167H41.75C42.8546 22.9167 43.75 23.8121 43.75 24.9167V25.0833ZM43.75 14.6667C43.75 15.7712 42.8546 16.6667 41.75 16.6667H20.75C19.6454 16.6667 18.75 15.7712 18.75 14.6667V14.5C18.75 13.3954 19.6454 12.5 20.75 12.5H41.75C42.8546 12.5 43.75 13.3954 43.75 14.5V14.6667Z" fill="#F24463"/>
</svg>
