<svg width="90" height="90" viewBox="0 0 90 90" fill="none" xmlns="http://www.w3.org/2000/svg">
<g clip-path="url(#clip0)">
<path d="M90.0001 60.3682C90.0001 57.1753 89.0167 54.2083 87.3405 51.7505C87.2524 51.5321 87.1063 51.3518 86.9293 51.2015C84.1301 47.4662 79.6822 45.0341 74.6661 45.0341H72.7291L59.8453 32.9345C57.1873 30.4401 53.7162 29.0663 50.0714 29.0663H7.47309C3.35238 29.0663 0 32.4187 0 36.5402V58.7734C0 58.9835 0.0157818 59.1895 0.0315637 59.3947C0.0257493 59.4479 0 59.4952 0 59.55C0 59.7569 0.0456841 59.9512 0.123762 60.1298C0.770815 63.9149 4.06754 66.808 8.03458 66.808H8.07695C9.17004 70.9777 12.9593 74.0659 17.4663 74.0659C21.974 74.0659 25.7625 70.9777 26.8564 66.808H65.9363C67.0302 70.9777 70.8195 74.0659 75.3264 74.0659C79.8774 74.0659 83.6974 70.9171 84.7473 66.6867C87.7973 66.1169 90.0001 63.4913 90.0001 60.3682ZM17.4663 71.1629C13.7085 71.1629 10.6527 68.1071 10.6527 64.3485C10.6527 60.5908 13.7094 57.5349 17.4663 57.5349C21.2232 57.5349 24.2807 60.5908 24.2807 64.3485C24.2807 68.1071 21.2232 71.1629 17.4663 71.1629ZM75.3256 71.1629C71.5679 71.1629 68.512 68.1071 68.512 64.3485C68.512 60.5908 71.5687 57.5349 75.3256 57.5349C79.0825 57.5349 82.14 60.5908 82.14 64.3485C82.14 68.1071 79.0833 71.1629 75.3256 71.1629ZM85.0048 63.586C84.6127 58.584 80.4264 54.6311 75.3256 54.6311C70.1176 54.6311 65.8657 58.7526 65.6314 63.905H27.1613C26.927 58.7535 22.6751 54.6311 17.4663 54.6311C12.2674 54.6311 8.02129 58.7385 7.77294 63.8784C5.85919 63.7804 4.22952 62.6374 3.43378 61.002H4.70795C5.5095 61.002 6.15905 60.3524 6.15905 59.55C6.15905 58.7477 5.5095 58.0989 4.70795 58.0989H2.90302V36.5402C2.90302 34.0193 4.95299 31.9693 7.47309 31.9693H50.0714C52.9753 31.9693 55.7404 33.0641 57.8576 35.0517L71.16 47.5434C71.4291 47.7968 71.7846 47.9371 72.1543 47.9371H74.6661C77.7061 47.9371 80.492 49.0385 82.655 50.8576C81.8958 50.9058 81.2903 51.5204 81.2903 52.2921C81.2903 53.0945 81.9406 53.744 82.7422 53.744H85.1659C86.382 55.6644 87.0971 57.932 87.0971 60.3682C87.0971 61.7985 86.2524 63.0303 85.0048 63.586Z" fill="#343B42"/>
<path d="M62.4194 53.7439H29.0326C28.2302 53.7439 27.5807 54.3926 27.5807 55.195C27.5807 55.9974 28.2302 56.6469 29.0326 56.6469H62.4194C63.2209 56.6469 63.8713 55.9974 63.8713 55.195C63.8713 54.3926 63.2209 53.7439 62.4194 53.7439Z" fill="#343B42"/>
<path d="M40.6456 47.9371V34.9021C40.6456 34.0998 39.9952 33.451 39.1936 33.451H7.25798C6.45643 33.451 5.80688 34.0998 5.80688 34.9021V47.9371C5.80688 48.7394 6.45643 49.389 7.25798 49.389H39.1936C39.9952 49.389 40.6456 48.7394 40.6456 47.9371ZM37.7417 46.486H8.7099V36.3541H37.7417V46.486Z" fill="#343B42"/>
<path d="M56.2537 36.232C54.34 34.4387 51.8398 33.451 49.2159 33.451H44.9997C44.1981 33.451 43.5486 34.0998 43.5486 34.9021V47.9371C43.5486 48.7394 44.1981 49.389 44.9997 49.389H66.6315C67.2279 49.389 67.7628 49.0243 67.9821 48.4703C68.2014 47.9163 68.0585 47.285 67.6241 46.878L56.2537 36.232ZM46.4516 46.486V36.3541H49.2159C51.0997 36.3541 52.8947 37.0626 54.2686 38.35L62.9568 46.486H46.4516Z" fill="#343B42"/>
<path d="M17.4662 59.3905C14.7318 59.3905 12.5074 61.6141 12.5074 64.3485C12.5074 67.0837 14.7318 69.3073 17.4662 69.3073C20.2006 69.3073 22.425 67.0837 22.425 64.3485C22.425 61.6141 20.2006 59.3905 17.4662 59.3905ZM17.4662 66.4042C16.3325 66.4042 15.4105 65.4831 15.4105 64.3485C15.4105 63.2147 16.3325 62.2935 17.4662 62.2935C18.5992 62.2935 19.522 63.2147 19.522 64.3485C19.522 65.4831 18.5992 66.4042 17.4662 66.4042Z" fill="#D51D48"/>
<path d="M75.3255 59.3905C72.5911 59.3905 70.3667 61.6141 70.3667 64.3485C70.3667 67.0837 72.5911 69.3073 75.3255 69.3073C78.0599 69.3073 80.2843 67.0837 80.2843 64.3485C80.2843 61.6141 78.0607 59.3905 75.3255 59.3905ZM75.3255 66.4042C74.1925 66.4042 73.2697 65.4831 73.2697 64.3485C73.2697 63.2147 74.1925 62.2935 75.3255 62.2935C76.4593 62.2935 77.3813 63.2147 77.3813 64.3485C77.3813 65.4831 76.4593 66.4042 75.3255 66.4042Z" fill="#D51D48"/>
<path d="M27.5807 18.9053H40.6455C41.4471 18.9053 42.0966 18.2558 42.0966 17.4534C42.0966 16.651 41.4471 16.0015 40.6455 16.0015H27.5807C26.7792 16.0015 26.1288 16.651 26.1288 17.4534C26.1288 18.2558 26.7792 18.9053 27.5807 18.9053Z" fill="#343B42"/>
<path d="M15.9678 23.2602H36.2906C37.0921 23.2602 37.7417 22.6106 37.7417 21.8082C37.7417 21.0059 37.0921 20.3563 36.2906 20.3563H15.9678C15.1662 20.3563 14.5159 21.0059 14.5159 21.8082C14.5159 22.6106 15.1662 23.2602 15.9678 23.2602Z" fill="#343B42"/>
</g>
<defs>
<clipPath id="clip0">
<rect width="90" height="90" fill="white"/>
</clipPath>
</defs>
</svg>
